# xmcd CD Database Entry
#
# Track frame offsets:
# 182
# 3427
# 22925
# 45717
# 65150
# 83402
# 107430
# 108177
# 122425
# 139397
# 156117
# 176257
# 204380
# 227290
# 233842
# 236405
# 263752
# 285317
# 307510
#
# Disc length: 4501 seconds
#
# Revision: 3
# Processed by: cddbd v1.4b42PL1 Copyright (c) Steve Scherf et al.
# Submitted via: tcd 2.0b
#
DISCID=d9119313
DTITLE=Gerry Mulligan Quartet and Sextet/Two Times Four Plus Six
DYEAR=1900
DGENRE=
TTITLE0=Introduction
TTITLE1=Motel
TTITLE2=Birth of the Blues
TTITLE3=Five Brothers
TTITLE4=I'm Beginning To See The Light
TTITLE5=Open County
TTITLE6=Introduction(2)
TTITLE7=Come Out Wherever You Are
TTITLE8=Laura
TTITLE9=Bike Up The Strand
TTITLE10=Apple Core
TTITLE11=Moonlight In Vermont
TTITLE12=Nights At The Turntable
TTITLE13=Broadway
TTITLE14=Introduction(3)
TTITLE15=Red Door
TTITLE16=Soft Shoe
TTITLE17=Makin' Whoopie
TTITLE18=Bernie's Tune
EXTD=
EXTT0=
EXTT1=
EXTT2=
EXTT3=
EXTT4=
EXTT5=
EXTT6=
EXTT7=
EXTT8=
EXTT9=
EXTT10=
EXTT11=
EXTT12=
EXTT13=
EXTT14=
EXTT15=
EXTT16=
EXTT17=
EXTT18=
PLAYORDER=
